<?xml version="1.0" standalone="no"?>
<!DOCTYPE svg PUBLIC "-//W3C//DTD SVG 1.1//EN" "http://www.w3.org/Graphics/SVG/1.1/DTD/svg11.dtd" >
<svg xmlns="http://www.w3.org/2000/svg" xmlns:xlink="http://www.w3.org/1999/xlink" version="1.1">
<metadata></metadata>
<defs>
<font id="ramsbold_italic" horiz-adv-x="1126" >
<font-face units-per-em="2048" ascent="1536" descent="-512" />
<missing-glyph horiz-adv-x="491" />
<glyph unicode="&#xfb01;" horiz-adv-x="1236" d="M100 758l25 221h133l14 139q35 359 463 359l-20 -197q-183 0 -197 -135l-16 -166h631l-103 -979h-250l78 758h-381l-78 -758h-243l77 758h-133zM895 1139l27 256h258l-27 -256h-258z" />
<glyph unicode="&#xfb02;" horiz-adv-x="1212" d="M100 758l25 221h133l14 139q36 357 463 357h439l-154 -1475h-244l133 1280h-194q-183 0 -197 -135l-16 -166h180l-25 -221h-180l-78 -758h-243l77 758h-133z" />
<glyph horiz-adv-x="0" />
<glyph horiz-adv-x="682" />
<glyph unicode=" "  horiz-adv-x="491" />
<glyph unicode="&#x09;" horiz-adv-x="491" />
<glyph unicode="&#xa0;" horiz-adv-x="491" />
<glyph unicode="!" horiz-adv-x="636" d="M145 0l27 266h268l-26 -266h-269zM215 418l6 254l84 803h254l-84 -803l-47 -254h-213z" />
<glyph unicode="&#x22;" horiz-adv-x="829" d="M158 936l55 539h240l-123 -539h-172zM543 936l55 539h240l-123 -539h-172z" />
<glyph unicode="#" d="M49 348l27 242h229l43 180h-194l26 242h232l92 385h201l-97 -385h140l94 385h198l-94 -385h199l-27 -242h-233l-45 -180h202l-26 -242h-238l-84 -348h-200l86 348h-140l-86 -348h-196l86 348h-195zM504 590h137l45 180h-139z" />
<glyph unicode="$" d="M66 106l26 248q6 -5 18 -13t50.5 -29t80 -37.5t104.5 -31.5t126 -18l41 396q-62 23 -105.5 42t-97 52.5t-86 70.5t-55.5 92.5t-23 120.5q0 88 37.5 160t101.5 120t143 77t167 39l20 188h146l-21 -184q83 -4 159 -21.5t111 -33.5l35 -15l-26 -239q-14 8 -40 19.5 t-105 33.5t-156 28l-37 -337q66 -23 109 -41.5t99 -52t89 -70t56.5 -93t23.5 -124.5q0 -177 -119 -303t-344 -150l-25 -219h-145l22 215q-64 3 -127 15.5t-106.5 28t-78 30.5t-51.5 26zM397 1032q0 -96 144 -147l28 282q-70 -7 -121 -40.5t-51 -94.5zM616 233q77 7 133 53 t56 126q0 99 -152 157z" />
<glyph unicode="%" horiz-adv-x="1705" d="M176 1049q0 151 110.5 258.5t260.5 107.5q130 0 217.5 -84.5t87.5 -210.5q0 -152 -107 -259t-264 -107q-130 0 -217.5 84.5t-87.5 210.5zM268 0l1037 1397h202l-1036 -1397h-203zM377 1069q0 -51 34.5 -86t86.5 -35q60 0 104.5 44.5t44.5 107.5q0 53 -33.5 87t-87.5 34 q-59 0 -104 -45t-45 -107zM926 276q0 152 109 260.5t261 108.5q131 0 218.5 -85t87.5 -214q0 -150 -107.5 -256t-263.5 -106q-131 0 -218 83t-87 209zM1126 299q0 -51 34.5 -86t86.5 -35q61 0 105.5 45t44.5 107q0 53 -33.5 87t-87.5 34q-59 0 -104.5 -45t-45.5 -107z" />
<glyph unicode="&#x26;" horiz-adv-x="1267" d="M111 406q0 56 12 109.5t31.5 94t43 76.5t47.5 60.5t43.5 42t31.5 25.5l12 9q-8 10 -19.5 29t-31 78t-19.5 119q0 159 123 263.5t322 104.5q77 0 145.5 -13.5t98.5 -26.5l30 -13l-25 -244q-15 7 -40.5 18t-92.5 29.5t-121 18.5q-82 0 -136 -36.5t-54 -107.5q0 -47 26 -95 t78 -118l297 -395q29 51 39 146h236q-19 -207 -125 -342l117 -152l-193 -147l-104 135q-145 -97 -336 -97q-103 0 -187.5 36t-138 96t-82 136.5t-28.5 160.5zM356 440q0 -94 58 -162.5t161 -68.5q95 0 170 47q-173 227 -294 393q-95 -90 -95 -209z" />
<glyph unicode="'" horiz-adv-x="444" d="M158 936l55 539h240l-123 -539h-172z" />
<glyph unicode="(" horiz-adv-x="651" d="M141 369q0 289 103.5 561.5t353.5 566.5l170 -108q-115 -155 -193 -299.5t-117 -270t-54 -226.5t-15 -208q0 -338 199 -719l-195 -112q-252 405 -252 815z" />
<glyph unicode=")" horiz-adv-x="651" d="M-61 -334q114 157 191.5 301.5t116 270t53.5 226.5t15 210q0 344 -198 715l194 108q252 -394 252 -801q0 -137 -21.5 -266t-71.5 -272t-141.5 -295.5t-222.5 -308.5z" />
<glyph unicode="*" horiz-adv-x="1040" d="M145 1137q0 47 32.5 83.5t78.5 36.5q25 0 61 -18l191 -104l-8 211q0 33 2 51q4 42 39.5 70t79.5 28q41 0 69.5 -25.5t28.5 -64.5q0 -9 -10 -59l-54 -211l215 106q32 16 60 16q43 0 68.5 -29t25.5 -69q0 -51 -30.5 -82.5t-69.5 -38.5l-240 -45l141 -153q31 -35 31 -72 q0 -50 -38 -84.5t-87 -34.5q-66 0 -90 60l-84 196l-131 -207q-32 -49 -98 -49q-43 0 -71 27.5t-28 68.5q0 55 39 89l183 159l-232 45q-34 6 -54 32.5t-20 66.5z" />
<glyph unicode="+" d="M145 555l23 221h330l34 330h222l-35 -330h330l-23 -221h-330l-34 -330h-222l35 330h-330z" />
<glyph unicode="," horiz-adv-x="591" d="M117 -250l141 223l2 27h-80l29 266h268l-28 -276l-230 -305z" />
<glyph unicode="-" horiz-adv-x="778" d="M139 436l23 223h532l-22 -223h-533z" />
<glyph unicode="." horiz-adv-x="555" d="M135 0l29 266h268l-29 -266h-268z" />
<glyph unicode="/" horiz-adv-x="692" d="M-16 -20l577 1437h221l-579 -1437h-219z" />
<glyph unicode="0" d="M104 586q0 184 45.5 342t121.5 264.5t176 166.5t208 60q195 0 310.5 -162.5t115.5 -443.5q0 -185 -43.5 -342t-117.5 -264t-175 -167t-215 -60q-196 0 -311 162.5t-115 443.5zM348 586q0 -181 51 -280t140 -99q125 0 212 165t87 441q0 181 -52.5 280t-142.5 99 q-122 0 -208.5 -165.5t-86.5 -440.5z" />
<glyph unicode="1" d="M141 0l23 227h313l96 903l-290 -141l26 244l318 162h217l-123 -1168h309l-22 -227h-867z" />
<glyph unicode="2" d="M41 0q43 49 122.5 139t122 138.5t110 127t105 126t87.5 113t77.5 111.5t54.5 97t38.5 93t11.5 79q0 79 -49 123.5t-143 44.5q-67 0 -155.5 -33t-144.5 -65l-55 -33l25 246q7 4 20.5 11.5t56.5 26.5t87 33.5t108 26.5t125 12q177 0 277 -100.5t100 -269.5 q0 -83 -28 -168.5t-91 -186.5t-148 -208.5t-214 -252.5h452l-24 -231h-928z" />
<glyph unicode="3" d="M102 80l29 258q7 -5 18.5 -13.5t49 -30.5t74.5 -39t89.5 -30.5t100.5 -13.5q114 0 188 60t74 155q0 84 -69 137t-201 53l24 224q137 0 210 57.5t73 149.5q0 61 -46.5 102t-121.5 41q-72 0 -157.5 -27t-134.5 -53l-50 -27l27 242q20 10 55 25.5t133 41t182 25.5 q170 0 267.5 -93t97.5 -247q0 -63 -18.5 -121t-45 -95.5t-53 -66.5t-45.5 -42l-18 -13q6 -3 16 -9.5t35 -32t44.5 -56.5t35.5 -85t16 -116q0 -195 -139.5 -327.5t-366.5 -132.5q-64 0 -126 10.5t-105 25t-76.5 29t-49.5 25.5z" />
<glyph unicode="4" d="M23 328l639 1069h268l-504 -846h281l26 215h240l-27 -215h127l-22 -223h-127l-33 -328h-240l33 328h-661z" />
<glyph unicode="5" d="M104 84l27 244q6 -5 17.5 -13t48 -29t73.5 -37t90.5 -29t102.5 -13q126 0 206.5 71t80.5 181q0 90 -70.5 148.5t-194.5 58.5q-56 0 -124.5 -6t-108.5 -12l-41 -7l164 756h653l-22 -228h-441l-61 -276q29 2 49 2q207 0 327.5 -116t120.5 -306q0 -215 -151.5 -354 t-374.5 -139q-66 0 -128.5 10.5t-104.5 26t-74.5 31t-47.5 26.5z" />
<glyph unicode="6" d="M137 446q0 271 181.5 530t506.5 456l133 -189q-156 -91 -288.5 -211t-192.5 -246q9 6 26 14.5t69.5 23t105.5 14.5q153 0 255.5 -108.5t102.5 -270.5q0 -203 -134 -341t-339 -138q-202 0 -314 123.5t-112 342.5zM383 426q0 -102 50.5 -160.5t135.5 -58.5q88 0 153.5 65.5 t65.5 157.5q0 80 -52 135.5t-132 55.5q-59 0 -109.5 -17t-70.5 -34l-21 -17q-20 -61 -20 -127z" />
<glyph unicode="7" d="M168 0l657 1169h-594l23 228h952l-770 -1397h-268z" />
<glyph unicode="8" d="M94 360q0 67 22.5 128.5t55 101.5t64.5 70.5t54 44.5l23 14q-5 3 -13 9.5t-28 29.5t-35.5 51t-28.5 75.5t-13 100.5q0 121 66 221t174.5 155.5t232.5 55.5q181 0 295 -102t114 -266q0 -64 -18.5 -121.5t-45.5 -94t-54 -63.5t-45 -39l-19 -12q6 -4 16.5 -11.5t36.5 -35 t46 -59.5t36.5 -86.5t16.5 -114.5q0 -180 -144.5 -306t-359.5 -126q-202 0 -325.5 104.5t-123.5 275.5zM344 385q0 -78 57.5 -128t153.5 -50q102 0 172 57t70 152q0 75 -58 125.5t-147 50.5q-105 0 -176.5 -59t-71.5 -148zM440 995q0 -67 51 -114t125 -47q86 0 150.5 56.5 t64.5 137.5q0 70 -49.5 117t-126.5 47q-90 0 -152.5 -55.5t-62.5 -141.5z" />
<glyph unicode="9" d="M166 930q0 97 40 187t107 155.5t159 105t192 39.5q184 0 291.5 -116t107.5 -316q0 -284 -183 -549t-503 -471l-133 189q359 208 471 442q-76 -37 -180 -37q-161 0 -265 107t-104 264zM412 965q0 -77 52.5 -130t133.5 -53q55 0 105 17.5t73 34.5l23 18q5 2 11.5 46t6.5 77 q0 100 -50 157.5t-134 57.5q-88 0 -154.5 -65.5t-66.5 -159.5z" />
<glyph unicode=":" horiz-adv-x="555" d="M117 0l28 266h269l-29 -266h-268zM193 713l26 266h268l-26 -266h-268z" />
<glyph unicode=";" horiz-adv-x="591" d="M98 -250l142 223l2 27h-80l28 266h269l-31 -276l-227 -305zM238 713l26 266h268l-26 -266h-268z" />
<glyph unicode="&#x3c;" d="M147 575l19 183l926 405l-25 -245l-633 -250l580 -252l-27 -246z" />
<glyph unicode="=" d="M125 354l22 221h881l-22 -221h-881zM166 758l24 221h881l-24 -221h-881z" />
<glyph unicode="&#x3e;" d="M104 170l27 246l633 252l-580 250l25 245l840 -405l-19 -183z" />
<glyph unicode="?" horiz-adv-x="866" d="M164 1163l26 246q20 9 53.5 23t121.5 37.5t157 23.5q179 0 272 -86t93 -219q0 -79 -24.5 -150.5t-61.5 -121.5t-82.5 -98.5t-86 -83.5t-74 -73.5t-44.5 -70.5q-7 -20 -15 -63.5t-12 -76.5l-4 -34h-233q6 131 12 184q6 51 35.5 102t69 90t84.5 82.5t82.5 81.5t62.5 84.5 t25 92.5q0 54 -35 89t-117 35q-56 0 -132 -23.5t-125 -47.5zM188 0l29 266h268l-28 -266h-269z" />
<glyph unicode="@" horiz-adv-x="2113" d="M164 424q0 174 53.5 336t152 292t230 228t295 151.5t338.5 53.5q165 0 312.5 -54t256 -148.5t172.5 -232.5t64 -298q0 -198 -94.5 -360t-257.5 -253.5t-359 -91.5h-135v98q-4 -5 -12 -12.5t-35 -27.5t-56.5 -35.5t-75.5 -28t-93 -12.5q-144 0 -231 96t-87 260 q0 83 25.5 168.5t75.5 163.5t117.5 139t158 97t190.5 36q45 0 85.5 -12t66 -28.5t44 -33.5t26.5 -29l8 -12l37 97h211l-240 -744q53 0 110 21t111.5 63.5t98 101t70 141t26.5 175.5q0 240 -173 393.5t-440 153.5q-162 0 -314.5 -67t-265.5 -179.5t-181 -267t-68 -320.5 q0 -187 85 -339.5t239.5 -241t347.5 -88.5q95 0 191 20t166 49t126.5 58t85.5 49l29 20l-27 -241q-9 -7 -26.5 -17.5t-76.5 -38t-122.5 -48.5t-162 -38.5t-198.5 -17.5q-188 0 -351 66t-277.5 180t-180 272t-65.5 338zM827 414q0 -85 40 -134t112 -49q66 0 128 37 t104.5 95.5t68 129.5t25.5 138q0 76 -42 113.5t-118 37.5q-88 0 -163 -57t-115 -141t-40 -170z" />
<glyph unicode="A" horiz-adv-x="1310" d="M-8 0l780 1483l467 -1483h-270l-78 283h-492l-139 -283h-268zM504 504h327l-118 420z" />
<glyph unicode="B" horiz-adv-x="1277" d="M137 0l146 1397h460q237 0 353 -91.5t116 -258.5q0 -60 -18.5 -113.5t-44.5 -88t-53.5 -60t-45 -37t-20.5 -11.5q7 -3 17.5 -9.5t38.5 -33t49.5 -58.5t39 -88.5t17.5 -121.5q0 -193 -137.5 -309.5t-380.5 -116.5h-537zM406 227h272q117 0 190.5 50t73.5 157 q0 162 -250 162h-248zM469 817h244q105 0 175 53.5t70 155.5q0 143 -204 143h-248z" />
<glyph unicode="C" horiz-adv-x="1226" d="M115 633q0 221 105.5 401.5t284.5 281.5t392 101q99 0 183 -17.5t118 -34.5l35 -17l-27 -258q-5 4 -14.5 10.5t-41 23.5t-66 30t-88.5 23.5t-109 10.5q-108 0 -205.5 -42.5t-168 -115t-112 -174t-41.5 -215.5q0 -187 118 -309.5t296 -122.5q64 0 126 14t106 33.5 t78.5 39.5t51.5 34l17 14l-29 -276q-5 -4 -15.5 -9.5t-45.5 -21t-74.5 -27t-102 -21t-128.5 -9.5q-189 0 -336 84t-227 232.5t-80 336.5z" />
<glyph unicode="D" horiz-adv-x="1390" d="M137 0l146 1397h399q317 0 491.5 -172t174.5 -457q0 -169 -50 -307.5t-149 -242.5t-258 -161t-365 -57h-389zM410 227h157q251 0 392 143.5t141 379.5q0 194 -111.5 306.5t-320.5 112.5h-158z" />
<glyph unicode="E" horiz-adv-x="1191" d="M137 0l146 1397h931l-24 -236h-686l-35 -338h578l-25 -235h-578l-36 -355h700l-25 -233h-946z" />
<glyph unicode="F" horiz-adv-x="1081" d="M137 0l146 1397h856l-25 -236h-612l-35 -338h553l-25 -235h-551l-61 -588h-246z" />
<glyph unicode="G" horiz-adv-x="1486" d="M115 633q0 166 63 312t171.5 249.5t259 163t321.5 59.5q76 0 149 -10t123 -24.5t89.5 -29t58.5 -24.5l18 -10l-27 -252q-8 5 -22 13t-59 29t-91.5 37t-115.5 29t-135 13q-160 0 -288 -72t-199 -197t-71 -278q0 -196 122 -314t309 -118q88 0 168.5 22t117.5 44l37 22 l21 201h-426l24 233h670l-55 -536q-9 -9 -26.5 -23.5t-77 -51.5t-124 -65.5t-165.5 -51.5t-205 -23q-175 0 -318.5 78.5t-230 229t-86.5 345.5z" />
<glyph unicode="H" horiz-adv-x="1464" d="M137 0l146 1397h245l-59 -574h625l59 574h246l-146 -1397h-245l61 588h-625l-61 -588h-246z" />
<glyph unicode="I" horiz-adv-x="598" d="M137 0l146 1397h249l-145 -1397h-250z" />
<glyph unicode="J" horiz-adv-x="624" d="M4 0l23 215h43q55 0 91.5 35.5t43.5 105.5l108 1041h246l-110 -1057q-18 -160 -108.5 -250t-248.5 -90h-88z" />
<glyph unicode="K" horiz-adv-x="1259" d="M137 0l146 1397h245l-59 -570l524 570h314l-613 -649l518 -748h-319l-369 567l-92 -98l-49 -469h-246z" />
<glyph unicode="L" horiz-adv-x="1107" d="M137 0l146 1397h243l-120 -1164h649l-25 -233h-893z" />
<glyph unicode="M" horiz-adv-x="1722" d="M137 0l154 1475l606 -719l760 719l-152 -1475h-245l94 870l-490 -450l-389 465l-92 -885h-246z" />
<glyph unicode="N" horiz-adv-x="1464" d="M137 0l154 1475l770 -947l92 869h246l-154 -1475l-772 938l-90 -860h-246z" />
<glyph unicode="O" horiz-adv-x="1615" d="M115 633q0 162 62 307.5t168 250t253.5 165.5t312.5 61q142 0 265.5 -49t211 -135t137.5 -207.5t50 -261.5q0 -166 -62 -312t-169 -249.5t-255.5 -163t-316.5 -59.5q-185 0 -335 83t-236 233t-86 337zM358 647q0 -190 124 -314t311 -124q149 0 272 70.5t194.5 195 t71.5 275.5q0 190 -124 314t-312 124q-148 0 -272 -74t-194.5 -198t-70.5 -269z" />
<glyph unicode="P" horiz-adv-x="1216" d="M137 0l146 1397h518q132 0 229 -54.5t144 -143t47 -198.5q0 -105 -33 -193.5t-96.5 -153.5t-161.5 -101.5t-221 -36.5h-273l-53 -516h-246zM461 748h270q116 0 181 63t65 170q0 84 -54.5 135t-148.5 51h-270z" />
<glyph unicode="Q" horiz-adv-x="1615" d="M115 633q0 162 62 307.5t168 250t253.5 165.5t312.5 61q142 0 265.5 -49t211 -135t137.5 -207.5t50 -261.5q0 -234 -122 -421.5t-323 -283.5l302 -202l-31 -289l-596 414q-23 -2 -33 -2q-185 0 -335 83t-236 233t-86 337zM358 647q0 -190 124 -314t311 -124 q149 0 272 70.5t194.5 195t71.5 275.5q0 190 -124 314t-312 124q-148 0 -272 -74t-194.5 -198t-70.5 -269z" />
<glyph unicode="R" horiz-adv-x="1288" d="M137 0l146 1397h505q200 0 312 -109t112 -284t-95.5 -288.5t-248.5 -152.5l349 -563h-310l-424 743h191q77 0 135.5 19.5t91 53.5t48.5 74.5t16 86.5q0 87 -54 138.5t-149 51.5h-260l-121 -1167h-244z" />
<glyph unicode="S" horiz-adv-x="1124" d="M76 102l26 256q7 -6 20.5 -16t57 -35t88.5 -44.5t111.5 -35.5t130.5 -16q44 0 90.5 10.5t92.5 32t75 63t29 95.5q0 46 -34.5 81.5t-89.5 61.5t-121 51.5t-132.5 59t-121.5 76.5t-89.5 112.5t-34.5 157.5q0 123 67 215.5t184 141t265 48.5q60 0 118 -7.5t99 -17.5 t73 -20.5t48 -17.5l16 -8l-28 -240q-18 9 -50 23t-122.5 37.5t-171.5 23.5q-99 0 -172.5 -41.5t-73.5 -120.5q0 -43 34.5 -77t89.5 -59t121 -50.5t132.5 -59.5t121.5 -78t89.5 -114.5t34.5 -159.5q0 -68 -19 -131t-62 -121.5t-105.5 -102t-156 -69.5t-206.5 -26 q-74 0 -145 12.5t-119 30.5t-86 36t-56 31z" />
<glyph unicode="T" horiz-adv-x="1081" d="M125 1161l25 236h999l-25 -236h-376l-121 -1161h-246l121 1161h-377z" />
<glyph unicode="U" horiz-adv-x="1443" d="M174 496q0 39 6 120l84 781h246l-86 -797q-4 -54 -4 -98q0 -131 74.5 -211t216.5 -80q144 0 239.5 98.5t114.5 263.5l90 824h246l-88 -824q-16 -156 -71 -272.5t-138.5 -185t-184.5 -102t-219 -33.5q-108 0 -200.5 30.5t-166.5 91t-116.5 162t-42.5 232.5z" />
<glyph unicode="V" horiz-adv-x="1331" d="M152 1397h270l258 -924l448 924h273l-776 -1483z" />
<glyph unicode="W" horiz-adv-x="2017" d="M172 1397h264l187 -879l501 924l308 -924l366 879h268l-663 -1479l-334 973l-547 -971z" />
<glyph unicode="X" horiz-adv-x="1312" d="M4 0l549 725l-373 672h291l246 -482l340 482h291l-510 -676l397 -721h-289l-270 528l-385 -528h-287z" />
<glyph unicode="Y" horiz-adv-x="1253" d="M129 1397h272l271 -617l395 617h274l-567 -842l-57 -555h-246l57 559z" />
<glyph unicode="Z" horiz-adv-x="1210" d="M14 0l807 1165h-606l25 232h1028l-807 -1166h633l-23 -231h-1057z" />
<glyph unicode="[" horiz-adv-x="649" d="M104 -410l189 1805h434l-20 -211h-193l-145 -1385h192l-22 -209h-435z" />
<glyph unicode="\" horiz-adv-x="692" d="M131 1417h221l281 -1437h-221z" />
<glyph unicode="]" horiz-adv-x="649" d="M-27 -410l23 209h190l146 1385h-193l21 211h434l-188 -1805h-433z" />
<glyph unicode="^" horiz-adv-x="1021" d="M72 612l436 783h190l273 -783h-254l-142 500l-247 -500h-256z" />
<glyph unicode="_" horiz-adv-x="999" d="M-31 -324l19 170h1018l-19 -170h-1018z" />
<glyph unicode="`" horiz-adv-x="497" d="M63 1253l138 213l358 -229l-86 -158z" />
<glyph unicode="a" horiz-adv-x="1236" d="M102 446q0 158 78.5 287t198 197.5t248.5 68.5q59 0 109 -13t80 -31.5t52 -36.5t30 -31l9 -13l21 105h231l-102 -979h-232v102q-4 -5 -12 -13t-36 -29t-59 -37.5t-80.5 -29.5t-102.5 -13q-181 0 -307 130.5t-126 335.5zM338 457q0 -109 69.5 -183.5t180.5 -74.5 q48 0 92.5 13t73 31.5t50.5 36.5t32 31l10 13l37 333q-3 5 -8 13t-25 29t-44.5 37t-66.5 29t-90 13q-129 0 -220 -94.5t-91 -226.5z" />
<glyph unicode="b" horiz-adv-x="1220" d="M115 0l155 1475h244l-63 -594q4 5 11.5 13t34 28t57.5 35.5t81.5 28.5t105.5 13q175 0 296.5 -129t121.5 -331q0 -124 -42 -230t-113.5 -177.5t-165.5 -111.5t-197 -40q-55 0 -104 12.5t-79 30.5t-52 36t-32 31l-9 12l-21 -102h-229zM391 324q3 -5 8 -13.5t25 -30 t44.5 -38t66.5 -30t90 -13.5q135 0 218 96t83 229q0 109 -65 181.5t-175 72.5q-49 0 -93.5 -12.5t-73 -30t-50.5 -35.5t-31 -30l-10 -13z" />
<glyph unicode="c" horiz-adv-x="995" d="M102 444q0 155 76 283t203.5 200t277.5 72q70 0 138 -15.5t101 -30.5l32 -15l-27 -250q-4 4 -11 10t-32 22t-53 28t-71.5 22t-88.5 10q-130 0 -221.5 -96t-91.5 -225q0 -115 68 -187.5t184 -72.5q47 0 94 10t80.5 24.5t60 29t39.5 24.5l14 10l-24 -246q-5 -3 -13.5 -7.5 t-38.5 -17t-62 -22t-82 -17t-101 -7.5q-197 0 -324 132t-127 332z" />
<glyph unicode="d" horiz-adv-x="1226" d="M102 446q0 119 45 224t118.5 176t168 112t193.5 41q55 0 103 -12t77 -29.5t50 -35t29 -29.5l9 -12l63 594h244l-155 -1475h-230v102q-4 -5 -12.5 -13t-36.5 -29t-59.5 -37.5t-81.5 -29.5t-103 -13q-180 0 -301 130t-121 336zM338 455q0 -109 65.5 -182.5t174.5 -73.5 q48 0 92.5 13t73 31.5t50.5 36.5t32 31l10 13l36 333q-2 5 -7.5 13t-25 29t-44 37t-66.5 29t-90 13q-129 0 -215 -94.5t-86 -228.5z" />
<glyph unicode="e" horiz-adv-x="1132" d="M102 444q0 115 46 219t122 177t178 116t211 43q85 0 157.5 -25t122.5 -66.5t85 -96t51.5 -114t16.5 -119.5q0 -44 -7 -88.5t-15 -67.5l-7 -23h-721q5 -85 80 -147t188 -62q55 0 112.5 10.5t101 25t79 29.5t53.5 25l19 11l-25 -228q-18 -9 -50.5 -23t-130 -37t-191.5 -23 q-210 0 -343 131.5t-133 332.5zM358 573h510q0 86 -62 154t-165 68q-97 0 -177.5 -63.5t-105.5 -158.5z" />
<glyph unicode="f" horiz-adv-x="661" d="M100 758l25 221h133l14 139q35 359 463 359l-20 -197q-183 0 -197 -135l-16 -166h180l-25 -221h-180l-78 -758h-243l77 758h-133z" />
<glyph unicode="g" horiz-adv-x="1226" d="M104 -309l136 192q4 -4 11.5 -10.5t34 -23.5t56.5 -30t77 -23.5t97 -10.5q69 0 129 26.5t105.5 88t56.5 149.5l8 70q-4 -5 -11.5 -13t-34 -28.5t-57.5 -36t-81 -28.5t-105 -13q-177 0 -299.5 123.5t-122.5 320.5q0 121 44.5 227t118.5 176.5t169 111t195 40.5 q53 0 100 -12.5t76 -30.5t51 -36t32 -30l9 -13l21 102h229l-98 -932q-10 -99 -47 -180t-91 -135t-122.5 -91.5t-141 -54t-147.5 -16.5q-76 0 -145 12.5t-113 30t-77.5 35.5t-48.5 30zM340 467q0 -106 65 -176t175 -70q48 0 92.5 12.5t73 30.5t50.5 35.5t32 30.5l10 12 l34 313q-2 5 -7.5 13.5t-25 30t-44 38t-66.5 30t-90 13.5q-130 0 -214.5 -90.5t-84.5 -222.5z" />
<glyph unicode="h" horiz-adv-x="1208" d="M115 0l153 1475h244l-61 -592q5 5 13.5 12.5t39 27.5t63.5 35.5t84.5 28t104.5 12.5q164 0 259 -94t95 -256q0 -40 -6 -94l-57 -555h-244l55 547q6 48 6 71q0 75 -48 117.5t-128 42.5q-44 0 -87 -12t-73 -29t-53.5 -34t-34.5 -29l-12 -12l-70 -662h-243z" />
<glyph unicode="i" horiz-adv-x="552" d="M115 0l102 979h250l-102 -979h-250zM229 1141l27 256h258l-27 -256h-258z" />
<glyph unicode="j" horiz-adv-x="569" d="M-92 -430l22 215q96 0 143 40.5t54 106.5l109 1047h243l-108 -1032q-8 -79 -34.5 -143t-78 -118.5t-140.5 -85t-210 -30.5zM248 1141l26 256h256l-26 -256h-256z" />
<glyph unicode="k" horiz-adv-x="1069" d="M115 0l153 1475h244l-86 -830l346 334h320l-459 -428l377 -551h-308l-241 391l-68 -59l-35 -332h-243z" />
<glyph unicode="l" horiz-adv-x="550" d="M115 0l153 1475h244l-154 -1475h-243z" />
<glyph unicode="m" horiz-adv-x="1744" d="M127 0l102 979h230l-4 -113q6 5 16.5 14t44 31.5t66.5 40t80 31.5t90 14q55 0 101.5 -13.5t74 -33.5t47.5 -39.5t27 -32.5l8 -14q6 5 16.5 14t45 31.5t72 40t94 31.5t112.5 14q158 0 235.5 -85t77.5 -238q0 -34 -6 -90l-62 -582h-243l59 578q4 40 4 55q0 145 -137 145 q-49 0 -105 -27t-87 -54l-31 -27l-70 -670h-244l62 580q4 40 4 53q0 68 -35 106.5t-100 38.5q-52 0 -110 -27.5t-90 -54.5l-32 -28l-69 -668h-244z" />
<glyph unicode="n" horiz-adv-x="1208" d="M115 0l102 979h227v-111q5 5 14.5 14t40.5 31.5t65 40t86.5 31.5t105.5 14q164 0 259 -94t95 -256q0 -40 -6 -94l-57 -555h-244l55 547q6 48 6 71q0 75 -48 117.5t-128 42.5q-44 0 -87 -12t-73 -29t-53.5 -34t-34.5 -29l-12 -12l-70 -662h-243z" />
<glyph unicode="o" horiz-adv-x="1210" d="M102 444q0 158 80 286.5t210.5 198.5t281.5 70q207 0 344 -130t137 -334q0 -119 -46.5 -223t-124.5 -176.5t-181.5 -114t-216.5 -41.5q-206 0 -345 130.5t-139 333.5zM336 459q0 -118 70.5 -189t191.5 -71q136 0 230 93.5t94 227.5q0 118 -71 189t-192 71 q-136 0 -229.5 -93.5t-93.5 -227.5z" />
<glyph unicode="p" horiz-adv-x="1226" d="M94 -410l146 1389h229v-102q4 5 12.5 13t36.5 29t59.5 37.5t81.5 29.5t103 13q180 0 302 -130.5t122 -336.5q0 -120 -40.5 -224t-109 -175.5t-162 -112t-198.5 -40.5q-59 0 -109.5 12t-81.5 29.5t-53.5 35t-31.5 29.5l-9 12l-53 -508h-244zM414 322q2 -5 7.5 -13t25 -29 t44 -37t66.5 -29t90 -13q129 0 214 94.5t85 228.5q0 110 -64 183t-173 73q-48 0 -92.5 -13t-73 -31t-50.5 -36.5t-32 -31.5l-10 -13z" />
<glyph unicode="q" horiz-adv-x="1226" d="M115 440q0 124 42 230t113.5 177.5t165.5 111.5t197 40q55 0 104 -12.5t79 -30.5t52 -36t32 -30l9 -13l21 102h229l-145 -1389h-244l53 508q-4 -5 -11.5 -13t-34.5 -28t-57.5 -35.5t-81.5 -28.5t-106 -13q-175 0 -296 129t-121 331zM348 455q0 -109 65 -181.5t175 -72.5 q49 0 93.5 12.5t73 30.5t50.5 35.5t31 30.5l10 12l37 333q-3 5 -8 13.5t-25 30t-44.5 38t-66.5 30t-90 13.5q-135 0 -218 -96t-83 -229z" />
<glyph unicode="r" horiz-adv-x="784" d="M115 0l102 979h221v-111q5 5 13.5 14t37 31t59 39t76.5 31t91 14q31 0 56.5 -2.5t35.5 -4.5l10 -3l-24 -231q-54 18 -113 18q-117 0 -189 -80t-83 -196l-52 -498h-241z" />
<glyph unicode="s" horiz-adv-x="940" d="M90 68l27 239q6 -5 16 -12.5t43.5 -26.5t68.5 -34t87 -27t102 -12q33 0 61.5 4t56 13t44 28t16.5 45q0 27 -26 47.5t-67 35t-90.5 29.5t-99.5 37t-91 51.5t-67 78.5t-26 112q0 147 115.5 235t290.5 88q87 0 163 -15.5t109 -31.5l33 -16l-27 -227q-5 3 -15 8.5t-41 20 t-63.5 25t-80 19.5t-92.5 9q-52 0 -96 -22.5t-44 -59.5q0 -25 26 -44.5t67 -34t90.5 -31t99.5 -39.5t91 -53t67 -79t26 -111q0 -150 -112 -243.5t-326 -93.5q-87 0 -171 22t-125 44z" />
<glyph unicode="t" horiz-adv-x="700" d="M119 758l22 221h142l22 215h246l-23 -215h211l-22 -221h-211l-80 -758h-246l80 758h-141z" />
<glyph unicode="u" horiz-adv-x="1208" d="M133 330q0 40 6 94l58 555h243l-55 -547q-6 -48 -6 -72q0 -75 48 -117t128 -42q44 0 87 12t73 29t53.5 34t35.5 29l11 12l70 662h243l-102 -979h-227v111q-5 -5 -14.5 -14t-40.5 -31.5t-65 -40t-86.5 -31.5t-105.5 -14q-164 0 -259 94t-95 256z" />
<glyph unicode="v" horiz-adv-x="1036" d="M98 979h252l187 -588l294 588h263l-600 -1055z" />
<glyph unicode="w" horiz-adv-x="1669" d="M139 979h246l164 -582l360 600l234 -600l284 582h259l-553 -1045l-269 609l-391 -609z" />
<glyph unicode="x" horiz-adv-x="1071" d="M14 0l408 502l-283 477h281l160 -295l221 295h286l-387 -483l301 -496h-284l-174 315l-242 -315h-287z" />
<glyph unicode="y" horiz-adv-x="1105" d="M106 979h252l222 -668l338 668h253l-759 -1389h-244l268 486z" />
<glyph unicode="z" horiz-adv-x="1060" d="M35 0l598 760h-438l22 219h858l-592 -760h457l-22 -219h-883z" />
<glyph unicode="{" horiz-adv-x="671" d="M55 387l23 213q76 0 122 42t54 112l37 368q12 122 84.5 198.5t185.5 76.5h189l-21 -211h-108q-38 0 -64.5 -26t-32.5 -77l-37 -350q-5 -48 -21.5 -90t-36 -68t-38.5 -45.5t-32 -27.5l-13 -8q4 -3 10 -9t22 -25.5t28 -41t22 -55.5t10 -70q0 -33 -2 -53l-35 -324 q-2 -14 -2 -33q0 -40 20.5 -61t55.5 -21h109l-23 -211h-188q-100 0 -157.5 62t-57.5 166q0 35 4 63l35 338q0 3 1 20.5t1 20.5q0 59 -39.5 93t-104.5 34z" />
<glyph unicode="|" horiz-adv-x="595" d="M111 -428l200 1921h228l-201 -1921h-227z" />
<glyph unicode="}" horiz-adv-x="671" d="M-27 -410l21 211h108q38 0 64.5 26t32.5 77l37 350q5 48 21.5 90t36 68.5t38.5 46t32 27.5l13 8q-4 3 -10 8.5t-22 25t-28 41t-22 55.5t-10 70q0 34 2 54l35 323q2 14 2 33q0 40 -20.5 61t-55.5 21h-109l23 211h188q100 0 157.5 -62t57.5 -166q0 -35 -4 -63l-35 -338 q0 -3 -1 -20.5t-1 -20.5q0 -59 39.5 -93t104.5 -34l-23 -213q-76 0 -122 -42t-54 -112l-37 -368q-12 -122 -84.5 -198.5t-185.5 -76.5h-189z" />
<glyph unicode="~" horiz-adv-x="1218" d="M135 393l23 213q149 117 280 117q50 0 112.5 -21.5t111.5 -48t108 -48t104 -21.5q99 0 267 123l-23 -213q-156 -117 -274 -117q-48 0 -111 21.5t-113.5 48t-111 48t-105.5 21.5q-62 0 -122 -30.5t-146 -92.5z" />
<glyph unicode="&#xa1;" horiz-adv-x="636" d="M127 -496l84 803l47 254h213l-6 -254l-84 -803h-254zM246 713l28 266h269l-29 -266h-268z" />
<glyph unicode="&#xa2;" d="M162 449q0 199 134 352.5t327 187.5l18 185h190l-18 -185q51 -6 100.5 -19t72.5 -22l24 -10l-25 -233q-9 6 -25 16t-67 29.5t-102 25.5l-60 -571q56 7 111.5 28.5t83.5 39.5l28 18l-24 -240q-90 -47 -221 -61l-23 -209h-190l22 207q-160 31 -258 155.5t-98 305.5z M395 457q0 -86 38 -148.5t108 -93.5l57 549q-90 -37 -146.5 -118.5t-56.5 -188.5z" />
<glyph unicode="&#xa3;" d="M63 0l25 231q75 0 122 34t56 106l25 221h-164l23 227h163l25 221q21 181 148.5 279t306.5 98q84 0 164 -16.5t119 -32.5l38 -16l-24 -236q-18 8 -48.5 20.5t-114.5 33t-155 20.5q-76 0 -130.5 -38.5t-61.5 -111.5l-25 -221h295l-23 -227h-295l-22 -213 q-3 -27 -11.5 -52.5t-18.5 -42t-19.5 -29.5t-16.5 -19l-6 -5h602l-24 -231h-953z" />
<glyph unicode="&#xa4;" d="M111 188l116 117q-49 90 -49 197q0 103 49 196l-112 113l166 166l114 -115q94 51 193 51q103 0 194 -51l117 115l168 -168l-115 -115q47 -89 47 -192q0 -96 -47 -195l119 -119l-168 -165l-119 118q-94 -51 -198 -51t-193 47l-117 -114zM387 502q0 -82 57.5 -139.5 t143.5 -57.5q84 0 142 57.5t58 139.5t-58.5 138t-141.5 56q-85 0 -143 -56t-58 -138z" />
<glyph unicode="&#xa5;" d="M131 1397h266l213 -584l334 584h266l-391 -639h199l-21 -207h-292l-13 -111h293l-20 -207h-293l-25 -233h-241l24 233h-293l21 207h293l12 111h-293l20 207h199z" />
<glyph unicode="&#xa6;" horiz-adv-x="595" d="M115 -410l78 752h227l-78 -752h-227zM225 645l78 750h227l-77 -750h-228z" />
<glyph unicode="&#xa7;" horiz-adv-x="1165" d="M127 -274l25 241q18 -10 50.5 -25.5t124.5 -41t175 -25.5q105 0 170 35.5t65 103.5q0 35 -32.5 63.5t-84 49.5t-114 42t-125.5 49.5t-114.5 64t-84 92.5t-32.5 129q0 50 18 101t43.5 87t52 65t44.5 43.5t20 14.5q-4 3 -11 8t-24.5 24.5t-30.5 42t-24 60.5t-11 80 q0 108 66.5 196.5t183.5 139.5t260 51q93 0 181.5 -21t131.5 -42l42 -21l-25 -243q-7 4 -18.5 10t-49.5 22.5t-76.5 29t-94 22.5t-107.5 10q-104 0 -172 -36t-68 -101q0 -36 32.5 -64.5t84.5 -50t115 -43t126 -50t115 -64t84.5 -91.5t32.5 -127q0 -50 -18 -101t-43.5 -87 t-52 -65t-43.5 -43.5t-19 -14.5q4 -3 10.5 -9t23.5 -26.5t30 -44t23.5 -61t10.5 -78.5q0 -163 -146.5 -274t-361.5 -111q-93 0 -182.5 21t-132.5 42zM397 561q0 -62 81.5 -112t258.5 -117q39 33 62.5 80t23.5 82q0 25 -11 48t-38 44t-50.5 36.5t-71.5 36t-77 32t-88 33.5 q-5 2 -8 3q-82 -82 -82 -166z" />
<glyph unicode="&#xa8;" horiz-adv-x="645" d="M53 1149l25 237h239l-24 -237h-240zM459 1149l24 237h240l-25 -237h-239z" />
<glyph unicode="&#xa9;" horiz-adv-x="1689" d="M160 698q0 147 58 281t155 230.5t230 154t278 57.5q146 0 279.5 -57.5t230.5 -154t155 -230.5t58 -281q0 -145 -57.5 -279t-154.5 -231t-231 -155t-280 -58q-145 0 -278.5 58t-230.5 155t-154.5 231t-57.5 279zM336 698q0 -147 73.5 -272t199 -197.5t272.5 -72.5 q146 0 272 73t200 198t74 271q0 147 -74 272.5t-200 199t-272 73.5q-147 0 -272.5 -73t-199 -198.5t-73.5 -273.5zM498 698q0 176 115.5 296t289.5 120q56 0 107 -13t74 -25l22 -13l-2 -197q-11 8 -30.5 20.5t-73 33t-97.5 20.5q-96 0 -158.5 -70t-62.5 -172q0 -103 60 -173 t159 -70q47 0 100.5 17.5t82.5 35.5l30 18v-186q-7 -7 -22 -16.5t-72.5 -26t-128.5 -16.5q-170 0 -281.5 120t-111.5 297z" />
<glyph unicode="&#xaa;" horiz-adv-x="737" d="M121 492l18 170h555l-18 -170h-555zM123 1049q0 152 97 255t229 103q43 0 78 -13.5t49 -27.5l14 -14l8 45h174l-65 -619h-172l-3 45q-7 -6 -19.5 -15t-53 -24.5t-84.5 -15.5q-109 0 -180.5 80t-71.5 201zM301 1069q0 -60 34.5 -100.5t88.5 -40.5q32 0 62 14t44 28l13 13 l20 211q-4 6 -11.5 14.5t-34.5 22.5t-58 14q-67 0 -112.5 -51.5t-45.5 -124.5z" />
<glyph unicode="&#xab;" horiz-adv-x="1179" d="M106 481l334 439h250l-328 -439l236 -438h-250zM584 481l334 439h249l-327 -439l235 -438h-250z" />
<glyph unicode="&#xac;" d="M156 637l22 219h883l-53 -512h-224l31 293h-659z" />
<glyph unicode="&#xad;" horiz-adv-x="778" d="M139 436l23 223h532l-22 -223h-533z" />
<glyph unicode="&#xae;" horiz-adv-x="1689" d="M156 698q0 147 58 281t155 230.5t230 154t278 57.5q146 0 279 -57.5t230.5 -154t155 -230.5t57.5 -281q0 -146 -57.5 -279.5t-154 -230.5t-230.5 -155t-280 -58q-145 0 -278.5 58t-230.5 155t-154.5 231t-57.5 279zM332 698q0 -147 73.5 -272t199 -197.5t272.5 -72.5 q146 0 272 73t200 198t74 271q0 147 -74 272.5t-200 199t-272 73.5q-147 0 -272.5 -73t-199 -198.5t-73.5 -273.5zM610 311v783h248q150 0 229.5 -66t79.5 -188q0 -158 -141 -219l180 -310h-217l-147 279h-41v-279h-191zM799 754h78q40 0 69 23.5t29 58.5q0 37 -26.5 59.5 t-84.5 22.5h-65v-164z" />
<glyph unicode="&#xaf;" horiz-adv-x="481" d="M53 1155l23 211h481l-22 -211h-482z" />
<glyph unicode="&#xb0;" horiz-adv-x="780" d="M123 1186q0 128 89.5 217.5t217.5 89.5q129 0 219 -89.5t90 -217.5q0 -129 -90 -218t-219 -89t-218 89t-89 218zM305 1186q0 -52 37 -89.5t88 -37.5q52 0 89.5 37.5t37.5 89.5q0 51 -37.5 88t-89.5 37q-51 0 -88 -37t-37 -88z" />
<glyph unicode="&#xb1;" d="M94 51l25 221h880l-24 -221h-881zM160 657l22 222h330l31 290h221l-31 -290h330l-23 -222h-329l-31 -284h-221l30 284h-329z" />
<glyph unicode="&#xb2;" horiz-adv-x="737" d="M106 924q48 60 130.5 158.5t119.5 144.5t82 108.5t62.5 103t17.5 74.5q0 40 -21 62t-57 22q-40 0 -98.5 -23.5t-96.5 -47.5l-38 -23l20 199q14 9 39 22t92.5 34.5t124.5 21.5q106 0 171 -62t65 -166q0 -98 -52.5 -189t-191.5 -257h223l-18 -182h-574z" />
<glyph unicode="&#xb3;" horiz-adv-x="669" d="M92 979l21 197q12 -9 32.5 -23t76.5 -37.5t102 -23.5q48 0 83 28t35 70q0 86 -155 86l16 156q77 0 118.5 26.5t41.5 71.5q0 29 -22.5 48t-59.5 19q-46 0 -98.5 -15.5t-81.5 -31.5l-29 -16l18 182q13 7 35.5 17t84.5 26.5t114 16.5q105 0 169 -59t64 -152q0 -34 -10 -67 t-24.5 -55t-29 -39.5t-24.5 -25.5l-10 -8l9 -6t20.5 -19.5t25.5 -33.5t20 -49t9 -66q0 -120 -86 -201.5t-227 -81.5q-64 0 -123.5 16.5t-86.5 32.5z" />
<glyph unicode="&#xb4;" horiz-adv-x="497" d="M61 1237l408 229l92 -213l-446 -174z" />
<glyph unicode="&#xb5;" horiz-adv-x="1239" d="M94 -410l146 1389h243l-59 -559q-4 -46 -4 -68q0 -73 50 -112t134 -39q49 0 93 15t72.5 36.5t50 43.5t30.5 37l10 15l66 631h245l-102 -979h-229l2 119q-5 -6 -14 -15t-37.5 -33t-58 -42.5t-73 -33.5t-84.5 -15q-40 0 -74 7.5t-54 19t-34.5 22.5t-20.5 19l-5 7l-49 -465 h-244z" />
<glyph unicode="&#xb6;" horiz-adv-x="1296" d="M137 995q0 176 126.5 289t344.5 113h682l-22 -226h-105l-159 -1521h-203l160 1521h-150l-160 -1521h-190l104 1007h-94q-143 0 -238.5 98.5t-95.5 239.5z" />
<glyph unicode="&#xb7;" horiz-adv-x="555" d="M160 475l28 266h269l-29 -266h-268z" />
<glyph unicode="&#xb8;" horiz-adv-x="389" d="M-31 -401l19 141q37 -16 84 -16q80 0 80 61q0 23 -26.5 42t-49.5 26.5t-29 7.5l62 139h190l-33 -74q5 -2 12 -5.5t26.5 -16.5t34 -29t26.5 -43.5t12 -58.5q0 -91 -72 -147t-180 -56q-41 0 -80 7t-57 15z" />
<glyph unicode="&#xb9;" horiz-adv-x="509" d="M123 1464l18 191l205 106h154l-88 -837h-189l66 620z" />
<glyph unicode="&#xba;" horiz-adv-x="757" d="M100 492l19 170h555l-19 -170h-555zM123 1061q0 153 102.5 255.5t249.5 102.5q125 0 206 -83t81 -206q0 -155 -101.5 -257.5t-252.5 -102.5q-124 0 -204.5 83.5t-80.5 207.5zM297 1075q0 -60 34 -98.5t93 -38.5q73 0 117.5 52t44.5 128q0 59 -35 96t-94 37 q-65 0 -112.5 -51t-47.5 -125z" />
<glyph unicode="&#xbb;" horiz-adv-x="1179" d="M59 43l330 438l-237 439h249l244 -439l-336 -438h-250zM537 43l329 438l-237 439h250l243 -439l-336 -438h-249z" />
<glyph unicode="&#xbc;" horiz-adv-x="1640" d="M180 1098l21 190l202 107h154l-88 -838h-188l65 621zM238 -20l944 1439h194l-942 -1439h-196zM854 178l369 660h213l-267 -486h117l25 123h172l-13 -123h78l-18 -174h-78l-18 -178h-185l19 178h-414z" />
<glyph unicode="&#xbd;" horiz-adv-x="1660" d="M180 1098l21 190l202 107h154l-88 -838h-188l65 621zM238 -20l944 1439h194l-942 -1439h-196zM948 0q45 56 111 135t102 122.5t80 101t66 93t37.5 73t15.5 65.5q0 40 -21 62t-57 22q-40 0 -98 -23.5t-96 -46.5l-39 -24l20 198q14 9 39 22t92.5 34.5t124.5 21.5 q106 0 171 -61.5t65 -165.5q0 -98 -53 -190t-191 -257h223l-18 -182h-574z" />
<glyph unicode="&#xbe;" horiz-adv-x="1771" d="M133 618l21 197q12 -9 32.5 -23t76.5 -37.5t102 -23.5q48 0 83 28t35 70q0 86 -155 86l16 156q77 0 118.5 26.5t41.5 71.5q0 30 -23 49t-59 19q-46 0 -98.5 -15.5t-81.5 -31.5l-29 -16l18 182q13 7 35.5 16.5t84.5 26t114 16.5q105 0 169 -59t64 -152q0 -34 -10 -67 t-24.5 -55t-29 -39t-24.5 -25l-10 -8l9 -6t20.5 -19.5t25.5 -33.5t20 -49t9 -66q0 -120 -86 -201.5t-227 -81.5q-64 0 -123.5 16.5t-87.5 32.5zM369 -20l944 1439h194l-942 -1439h-196zM987 178l369 660h213l-266 -486h116l25 123h172l-12 -123h77l-18 -174h-78l-18 -178 h-185l19 178h-414z" />
<glyph unicode="&#xbf;" horiz-adv-x="866" d="M29 -207q0 93 33.5 174.5t84 139t102 105t96.5 94t58 83.5q6 20 13 63.5t11 77t5 33.5h234q-7 -131 -13 -184q-5 -44 -27.5 -87.5t-54.5 -80t-69.5 -72t-73.5 -70.5t-66 -70t-48.5 -75t-18.5 -80q0 -53 34.5 -88t116.5 -35q56 0 132.5 23.5t125.5 47.5l48 24l-27 -246 q-20 -9 -53.5 -23t-121.5 -37.5t-157 -23.5q-180 0 -272 87t-92 220zM430 713l29 266h268l-29 -266h-268z" />
<glyph unicode="&#xc0;" horiz-adv-x="1310" d="M-8 0l780 1483l467 -1483h-270l-78 283h-492l-139 -283h-268zM504 504h327l-118 420zM545 1671l137 213l358 -229l-86 -158z" />
<glyph unicode="&#xc1;" horiz-adv-x="1310" d="M-8 0l780 1483l467 -1483h-270l-78 283h-492l-139 -283h-268zM504 504h327l-118 420zM543 1655l407 229l92 -213l-446 -174z" />
<glyph unicode="&#xc2;" horiz-adv-x="1310" d="M-8 0l780 1483l467 -1483h-270l-78 283h-492l-139 -283h-268zM481 1640l326 224l283 -224l-86 -129l-222 121l-243 -121zM504 504h327l-118 420z" />
<glyph unicode="&#xc3;" horiz-adv-x="1310" d="M-8 0l780 1483l467 -1483h-270l-78 283h-492l-139 -283h-268zM496 1606q8 77 66 141.5t138 64.5q34 0 63 -9.5t45 -21t36 -21t39 -9.5q21 0 42.5 16.5t32.5 32.5l11 17l121 -58q-8 -77 -66.5 -142t-138.5 -65q-45 0 -79 15.5t-59 31t-47 15.5q-21 0 -42 -16.5t-32 -33.5 l-10 -16zM504 504h327l-118 420z" />
<glyph unicode="&#xc4;" horiz-adv-x="1310" d="M-8 0l780 1483l467 -1483h-270l-78 283h-492l-139 -283h-268zM457 1567l24 237h240l-25 -237h-239zM504 504h327l-118 420zM862 1567l25 237h239l-24 -237h-240z" />
<glyph unicode="&#xc5;" horiz-adv-x="1310" d="M-8 0l766 1454q-91 8 -150 70t-59 151q0 102 74.5 178t181.5 76q96 0 163.5 -64.5t67.5 -158.5q0 -103 -76 -176.5t-180 -75.5l459 -1454h-270l-78 283h-492l-139 -283h-268zM504 504h327l-118 420zM700 1683q0 -36 24.5 -58.5t61.5 -22.5q36 0 66.5 26t30.5 64 q0 39 -24 65.5t-62 26.5t-67.5 -29t-29.5 -72z" />
<glyph unicode="&#xc6;" horiz-adv-x="1996" d="M-14 0l1147 1397h886l-24 -236h-647l-35 -338h557l-25 -235h-557l-37 -355h662l-25 -233h-905l29 281h-508l-225 -281h-293zM692 508h344l51 493z" />
<glyph unicode="&#xc7;" horiz-adv-x="1226" d="M115 633q0 221 105.5 401.5t284.5 281.5t392 101q99 0 183 -17.5t118 -34.5l35 -17l-27 -258q-5 4 -14.5 10.5t-41 23.5t-66 30t-88.5 23.5t-109 10.5q-108 0 -205.5 -42.5t-168 -115t-112 -174t-41.5 -215.5q0 -187 118 -309.5t296 -122.5q64 0 126 14t106 33.5 t78.5 39.5t51.5 34l17 14l-29 -276q-11 -7 -32.5 -18.5t-95 -34.5t-154.5 -31l-25 -58q5 -2 12 -5.5t26.5 -16.5t34 -29t26.5 -43.5t12 -58.5q0 -91 -72 -147t-180 -56q-41 0 -80 7t-58 15l-18 7l19 141q37 -16 84 -16q79 0 79 61q0 23 -26 42t-49 26.5t-29 7.5l55 125 q-241 31 -389.5 209t-148.5 438z" />
<glyph unicode="&#xc8;" horiz-adv-x="1191" d="M137 0l146 1397h931l-24 -236h-686l-35 -338h578l-25 -235h-578l-36 -355h700l-25 -233h-946zM541 1671l137 213l358 -229l-86 -158z" />
<glyph unicode="&#xc9;" horiz-adv-x="1191" d="M137 0l146 1397h931l-24 -236h-686l-35 -338h578l-25 -235h-578l-36 -355h700l-25 -233h-946zM551 1655l407 229l93 -213l-447 -174z" />
<glyph unicode="&#xca;" horiz-adv-x="1191" d="M137 0l146 1397h931l-24 -236h-686l-35 -338h578l-25 -235h-578l-36 -355h700l-25 -233h-946zM483 1640l326 224l283 -224l-86 -129l-222 121l-243 -121z" />
<glyph unicode="&#xcb;" horiz-adv-x="1191" d="M137 0l146 1397h931l-24 -236h-686l-35 -338h578l-25 -235h-578l-36 -355h700l-25 -233h-946zM451 1567l24 237h240l-25 -237h-239zM856 1567l25 237h239l-24 -237h-240z" />
<glyph unicode="&#xcc;" horiz-adv-x="598" d="M137 0l146 1397h249l-145 -1397h-250zM188 1671l138 213l358 -229l-86 -158z" />
<glyph unicode="&#xcd;" horiz-adv-x="598" d="M137 0l146 1397h249l-145 -1397h-250zM180 1655l408 229l92 -213l-447 -174z" />
<glyph unicode="&#xce;" horiz-adv-x="598" d="M133 1640l326 224l282 -224l-86 -129l-221 121l-244 -121zM137 0l146 1397h249l-145 -1397h-250z" />
<glyph unicode="&#xcf;" horiz-adv-x="598" d="M100 1567l25 237h240l-25 -237h-240zM137 0l146 1397h249l-145 -1397h-250zM506 1567l24 237h240l-25 -237h-239z" />
<glyph unicode="&#xd0;" horiz-adv-x="1411" d="M94 588l27 235h123l59 574h399q317 0 491.5 -172t174.5 -457q0 -169 -50 -307.5t-148.5 -242.5t-257.5 -161t-365 -57h-389l61 588h-125zM430 227h158q251 0 391.5 143.5t140.5 379.5q0 194 -111.5 306.5t-320.5 112.5h-158l-36 -346h278l-27 -235h-278z" />
<glyph unicode="&#xd1;" horiz-adv-x="1464" d="M137 0l154 1475l770 -947l92 869h246l-154 -1475l-772 938l-90 -860h-246zM573 1606q8 76 66.5 141t138.5 65q34 0 63 -9.5t45 -21t36 -21t39 -9.5q21 0 42.5 16.5t32.5 32.5l11 17l120 -58q-8 -77 -66 -142t-138 -65q-45 0 -79 15.5t-59 31t-47 15.5q-21 0 -42 -16.5 t-32 -33.5l-10 -16z" />
<glyph unicode="&#xd2;" horiz-adv-x="1615" d="M115 633q0 162 62 307.5t168 250t253.5 165.5t312.5 61q142 0 265.5 -49t211 -135t137.5 -207.5t50 -261.5q0 -166 -62 -312t-169 -249.5t-255.5 -163t-316.5 -59.5q-185 0 -335 83t-236 233t-86 337zM358 647q0 -190 124 -314t311 -124q149 0 272 70.5t194.5 195 t71.5 275.5q0 190 -124 314t-312 124q-148 0 -272 -74t-194.5 -198t-70.5 -269zM698 1671l138 213l358 -229l-86 -158z" />
<glyph unicode="&#xd3;" horiz-adv-x="1615" d="M115 633q0 162 62 307.5t168 250t253.5 165.5t312.5 61q142 0 265.5 -49t211 -135t137.5 -207.5t50 -261.5q0 -166 -62 -312t-169 -249.5t-255.5 -163t-316.5 -59.5q-185 0 -335 83t-236 233t-86 337zM358 647q0 -190 124 -314t311 -124q149 0 272 70.5t194.5 195 t71.5 275.5q0 190 -124 314t-312 124q-148 0 -272 -74t-194.5 -198t-70.5 -269zM696 1655l408 229l92 -213l-446 -174z" />
<glyph unicode="&#xd4;" horiz-adv-x="1615" d="M115 633q0 162 62 307.5t168 250t253.5 165.5t312.5 61q142 0 265.5 -49t211 -135t137.5 -207.5t50 -261.5q0 -166 -62 -312t-169 -249.5t-255.5 -163t-316.5 -59.5q-185 0 -335 83t-236 233t-86 337zM358 647q0 -190 124 -314t311 -124q149 0 272 70.5t194.5 195 t71.5 275.5q0 190 -124 314t-312 124q-148 0 -272 -74t-194.5 -198t-70.5 -269zM635 1640l326 224l282 -224l-86 -129l-221 121l-244 -121z" />
<glyph unicode="&#xd5;" horiz-adv-x="1615" d="M115 633q0 162 62 307.5t168 250t253.5 165.5t312.5 61q142 0 265.5 -49t211 -135t137.5 -207.5t50 -261.5q0 -166 -62 -312t-169 -249.5t-255.5 -163t-316.5 -59.5q-185 0 -335 83t-236 233t-86 337zM358 647q0 -190 124 -314t311 -124q149 0 272 70.5t194.5 195 t71.5 275.5q0 190 -124 314t-312 124q-148 0 -272 -74t-194.5 -198t-70.5 -269zM647 1606q8 76 66.5 141t138.5 65q34 0 63 -9.5t44.5 -21t35.5 -21t39 -9.5q21 0 42.5 16.5t32.5 32.5l11 17l121 -58q-8 -77 -66.5 -142t-138.5 -65q-45 0 -78.5 15.5t-58.5 31t-47 15.5 q-21 0 -42 -16.5t-32 -33.5l-10 -16z" />
<glyph unicode="&#xd6;" horiz-adv-x="1615" d="M115 633q0 162 62 307.5t168 250t253.5 165.5t312.5 61q142 0 265.5 -49t211 -135t137.5 -207.5t50 -261.5q0 -166 -62 -312t-169 -249.5t-255.5 -163t-316.5 -59.5q-185 0 -335 83t-236 233t-86 337zM358 647q0 -190 124 -314t311 -124q149 0 272 70.5t194.5 195 t71.5 275.5q0 190 -124 314t-312 124q-148 0 -272 -74t-194.5 -198t-70.5 -269zM604 1567l25 237h239l-24 -237h-240zM1010 1567l24 237h240l-25 -237h-239z" />
<glyph unicode="&#xd7;" d="M145 403l293 263l-237 266l174 155l239 -262l293 269l142 -160l-295 -268l235 -265l-172 -157l-237 264l-293 -262z" />
<glyph unicode="&#xd8;" horiz-adv-x="1615" d="M115 633q0 162 62 307.5t168 250t253.5 165.5t312.5 61q204 0 363 -98l135 151l143 -116l-137 -154q160 -181 160 -436q0 -166 -62 -312t-169 -249.5t-255.5 -163t-316.5 -59.5q-199 0 -358 98l-138 -154l-139 119l135 152q-157 181 -157 438zM358 647q0 -153 82 -264 l670 752q-95 53 -215 53q-148 0 -272 -74t-194.5 -198t-70.5 -269zM578 260q94 -51 215 -51q149 0 272 70.5t194.5 195t71.5 275.5q0 148 -82 264z" />
<glyph unicode="&#xd9;" horiz-adv-x="1443" d="M174 496q0 39 6 120l84 781h246l-86 -797q-4 -54 -4 -98q0 -131 74.5 -211t216.5 -80q144 0 239.5 98.5t114.5 263.5l90 824h246l-88 -824q-16 -156 -71 -272.5t-138.5 -185t-184.5 -102t-219 -33.5q-108 0 -200.5 30.5t-166.5 91t-116.5 162t-42.5 232.5zM614 1671 l138 213l358 -229l-86 -158z" />
<glyph unicode="&#xda;" horiz-adv-x="1443" d="M174 496q0 39 6 120l84 781h246l-86 -797q-4 -54 -4 -98q0 -131 74.5 -211t216.5 -80q144 0 239.5 98.5t114.5 263.5l90 824h246l-88 -824q-16 -156 -71 -272.5t-138.5 -185t-184.5 -102t-219 -33.5q-108 0 -200.5 30.5t-166.5 91t-116.5 162t-42.5 232.5zM610 1655 l408 229l92 -213l-446 -174z" />
<glyph unicode="&#xdb;" horiz-adv-x="1443" d="M174 496q0 39 6 120l84 781h246l-86 -797q-4 -54 -4 -98q0 -131 74.5 -211t216.5 -80q144 0 239.5 98.5t114.5 263.5l90 824h246l-88 -824q-16 -156 -71 -272.5t-138.5 -185t-184.5 -102t-219 -33.5q-108 0 -200.5 30.5t-166.5 91t-116.5 162t-42.5 232.5zM561 1640 l326 224l282 -224l-86 -129l-221 121l-244 -121z" />
<glyph unicode="&#xdc;" horiz-adv-x="1443" d="M174 496q0 39 6 120l84 781h246l-86 -797q-4 -54 -4 -98q0 -131 74.5 -211t216.5 -80q144 0 239.5 98.5t114.5 263.5l90 824h246l-88 -824q-16 -156 -71 -272.5t-138.5 -185t-184.5 -102t-219 -33.5q-108 0 -200.5 30.5t-166.5 91t-116.5 162t-42.5 232.5zM530 1567 l25 237h240l-25 -237h-240zM936 1567l25 237h239l-24 -237h-240z" />
<glyph unicode="&#xdd;" horiz-adv-x="1253" d="M129 1397h272l271 -617l395 617h274l-567 -842l-57 -555h-246l57 559zM518 1655l408 229l92 -213l-447 -174z" />
<glyph unicode="&#xde;" horiz-adv-x="1216" d="M137 0l146 1397h247l-20 -189h272q133 0 229.5 -54.5t143.5 -142.5t47 -198q0 -105 -33 -193.5t-96.5 -153.5t-161.5 -101.5t-221 -36.5h-272l-35 -328h-246zM442 559h271q116 0 180.5 63.5t64.5 170.5q0 84 -54 135t-148 51h-271z" />
<glyph unicode="&#xdf;" horiz-adv-x="1187" d="M92 758l23 221h112l13 123q5 55 24 108.5t56.5 105t89 90.5t127 63t165.5 24q154 0 260.5 -86t106.5 -225q0 -73 -25 -133t-61 -97.5t-72 -67t-61 -56t-25 -50.5q0 -27 32.5 -58t79 -65.5t93 -76t79 -105t32.5 -137.5q0 -67 -27 -128.5t-79 -113.5t-139 -83t-198 -31 q-59 0 -112.5 9t-77.5 18l-23 9l25 222q9 -5 26.5 -12.5t73 -20t111.5 -12.5q72 0 123 31t51 83q0 32 -32 65.5t-77.5 67.5t-91.5 74t-78 101t-32 133q0 58 19 105.5t47 77t61 58.5t61 51.5t47 53.5t19 67q0 54 -44.5 88.5t-111.5 34.5q-88 0 -139.5 -55.5t-59.5 -136.5 l-114 -1092h-244l80 758h-113z" />
<glyph unicode="&#xe0;" horiz-adv-x="1236" d="M102 446q0 158 78.5 287t198 197.5t248.5 68.5q59 0 109 -13t80 -31.5t52 -36.5t30 -31l9 -13l21 105h231l-102 -979h-232v102q-4 -5 -12 -13t-36 -29t-59 -37.5t-80.5 -29.5t-102.5 -13q-181 0 -307 130.5t-126 335.5zM338 457q0 -109 69.5 -183.5t180.5 -74.5 q48 0 92.5 13t73 31.5t50.5 36.5t32 31l10 13l37 333q-3 5 -8 13t-25 29t-44.5 37t-66.5 29t-90 13q-129 0 -220 -94.5t-91 -226.5zM442 1253l138 213l358 -229l-86 -158z" />
<glyph unicode="&#xe1;" horiz-adv-x="1236" d="M102 446q0 158 78.5 287t198 197.5t248.5 68.5q59 0 109 -13t80 -31.5t52 -36.5t30 -31l9 -13l21 105h231l-102 -979h-232v102q-4 -5 -12 -13t-36 -29t-59 -37.5t-80.5 -29.5t-102.5 -13q-181 0 -307 130.5t-126 335.5zM338 457q0 -109 69.5 -183.5t180.5 -74.5 q48 0 92.5 13t73 31.5t50.5 36.5t32 31l10 13l37 333q-3 5 -8 13t-25 29t-44.5 37t-66.5 29t-90 13q-129 0 -220 -94.5t-91 -226.5zM438 1237l408 229l92 -213l-446 -174z" />
<glyph unicode="&#xe2;" horiz-adv-x="1236" d="M102 446q0 158 78.5 287t198 197.5t248.5 68.5q59 0 109 -13t80 -31.5t52 -36.5t30 -31l9 -13l21 105h231l-102 -979h-232v102q-4 -5 -12 -13t-36 -29t-59 -37.5t-80.5 -29.5t-102.5 -13q-181 0 -307 130.5t-126 335.5zM338 457q0 -109 69.5 -183.5t180.5 -74.5 q48 0 92.5 13t73 31.5t50.5 36.5t32 31l10 13l37 333q-3 5 -8 13t-25 29t-44.5 37t-66.5 29t-90 13q-129 0 -220 -94.5t-91 -226.5zM381 1223l326 223l282 -223l-86 -129l-221 120l-244 -120z" />
<glyph unicode="&#xe3;" horiz-adv-x="1236" d="M102 446q0 158 78.5 287t198 197.5t248.5 68.5q59 0 109 -13t80 -31.5t52 -36.5t30 -31l9 -13l21 105h231l-102 -979h-232v102q-4 -5 -12 -13t-36 -29t-59 -37.5t-80.5 -29.5t-102.5 -13q-181 0 -307 130.5t-126 335.5zM338 457q0 -109 69.5 -183.5t180.5 -74.5 q48 0 92.5 13t73 31.5t50.5 36.5t32 31l10 13l37 333q-3 5 -8 13t-25 29t-44.5 37t-66.5 29t-90 13q-129 0 -220 -94.5t-91 -226.5zM395 1188q8 77 66.5 142t138.5 65q34 0 63 -9.5t44.5 -21.5t35.5 -21.5t39 -9.5q21 0 42.5 16.5t32.5 32.5l11 17l121 -58 q-8 -76 -66.5 -141t-138.5 -65q-45 0 -78.5 15.5t-58.5 30.5t-47 15q-21 0 -42 -16.5t-32 -33.5l-10 -16z" />
<glyph unicode="&#xe4;" horiz-adv-x="1236" d="M102 446q0 158 78.5 287t198 197.5t248.5 68.5q59 0 109 -13t80 -31.5t52 -36.5t30 -31l9 -13l21 105h231l-102 -979h-232v102q-4 -5 -12 -13t-36 -29t-59 -37.5t-80.5 -29.5t-102.5 -13q-181 0 -307 130.5t-126 335.5zM338 457q0 -109 69.5 -183.5t180.5 -74.5 q48 0 92.5 13t73 31.5t50.5 36.5t32 31l10 13l37 333q-3 5 -8 13t-25 29t-44.5 37t-66.5 29t-90 13q-129 0 -220 -94.5t-91 -226.5zM356 1149l25 237h240l-25 -237h-240zM762 1149l24 237h240l-25 -237h-239z" />
<glyph unicode="&#xe5;" horiz-adv-x="1236" d="M102 446q0 158 78.5 287t198 197.5t248.5 68.5q59 0 109 -13t80 -31.5t52 -36.5t30 -31l9 -13l21 105h231l-102 -979h-232v102q-4 -5 -12 -13t-36 -29t-59 -37.5t-80.5 -29.5t-102.5 -13q-181 0 -307 130.5t-126 335.5zM338 457q0 -109 69.5 -183.5t180.5 -74.5 q48 0 92.5 13t73 31.5t50.5 36.5t32 31l10 13l37 333q-3 5 -8 13t-25 29t-44.5 37t-66.5 29t-90 13q-129 0 -220 -94.5t-91 -226.5zM446 1264q0 102 74.5 178t181.5 76q96 0 164 -65t68 -159q0 -103 -77 -177.5t-181 -74.5q-98 0 -164 64t-66 158zM598 1272q0 -36 24.5 -59 t61.5 -23q36 0 66 26t30 64q0 39 -24 65.5t-62 26.5t-67 -28.5t-29 -71.5z" />
<glyph unicode="&#xe6;" horiz-adv-x="1898" d="M102 446q0 119 47 224t123.5 176t173 112t195.5 41q55 0 103 -12t78 -29t52 -34t32 -29l9 -12l21 96h219l-6 -96q4 5 12.5 12.5t37.5 27.5t60.5 35.5t81 28t101.5 12.5q81 0 150.5 -25t117.5 -66.5t82 -96t50 -114t16 -119.5q0 -44 -7 -88.5t-15 -67.5l-7 -23h-717 q8 -84 81 -146.5t185 -62.5q53 0 109.5 10t100 25t79.5 29.5t55 24.5l19 10l-25 -228q-18 -9 -49.5 -22.5t-126.5 -36t-186 -22.5q-55 0 -105 12t-81.5 29t-55.5 34t-34 29l-11 12l-16 -96h-217v96q-5 -5 -13.5 -12.5t-37.5 -27.5t-61.5 -35.5t-83 -28t-103.5 -12.5 q-181 0 -307 130.5t-126 335.5zM338 457q0 -109 69.5 -183.5t180.5 -74.5q48 0 93.5 13t75.5 31.5t53.5 36.5t34.5 31l11 13l35 333q-3 5 -8.5 13t-27 29t-47 37t-68.5 29t-91 13q-128 -1 -219.5 -96t-91.5 -225zM1128 573h510q0 86 -62 154t-165 68q-97 0 -177.5 -63.5 t-105.5 -158.5z" />
<glyph unicode="&#xe7;" horiz-adv-x="954" d="M104 444q0 155 76 283t204 200t278 72q70 0 137.5 -15.5t100.5 -30.5l32 -15l-27 -250q-4 4 -11 10t-32 22t-53 28t-71.5 22t-88.5 10q-130 0 -221.5 -96t-91.5 -225q0 -115 68 -187.5t184 -72.5q75 0 147 24.5t107 48.5l35 25l-25 -246q-76 -47 -197 -63l-26 -62 q4 -2 11.5 -5.5t26.5 -16.5t33.5 -29t26.5 -43.5t12 -58.5q0 -91 -72 -147t-180 -56q-41 0 -79.5 7t-57.5 15l-18 7l18 141q37 -16 84 -16q80 0 80 61q0 23 -26 42t-49 26.5t-29 7.5l55 127q-162 29 -261.5 154.5t-99.5 301.5z" />
<glyph unicode="&#xe8;" horiz-adv-x="1132" d="M102 444q0 115 46 219t122 177t178 116t211 43q85 0 157.5 -25t122.5 -66.5t85 -96t51.5 -114t16.5 -119.5q0 -44 -7 -88.5t-15 -67.5l-7 -23h-721q5 -85 80 -147t188 -62q55 0 112.5 10.5t101 25t79 29.5t53.5 25l19 11l-25 -228q-18 -9 -50.5 -23t-130 -37t-191.5 -23 q-210 0 -343 131.5t-133 332.5zM358 573h510q0 86 -62 154t-165 68q-97 0 -177.5 -63.5t-105.5 -158.5zM432 1253l137 213l359 -229l-86 -158z" />
<glyph unicode="&#xe9;" horiz-adv-x="1132" d="M102 444q0 115 46 219t122 177t178 116t211 43q85 0 157.5 -25t122.5 -66.5t85 -96t51.5 -114t16.5 -119.5q0 -44 -7 -88.5t-15 -67.5l-7 -23h-721q5 -85 80 -147t188 -62q55 0 112.5 10.5t101 25t79 29.5t53.5 25l19 11l-25 -228q-18 -9 -50.5 -23t-130 -37t-191.5 -23 q-210 0 -343 131.5t-133 332.5zM358 573h510q0 86 -62 154t-165 68q-97 0 -177.5 -63.5t-105.5 -158.5zM426 1237l408 229l92 -213l-447 -174z" />
<glyph unicode="&#xea;" horiz-adv-x="1132" d="M102 444q0 115 46 219t122 177t178 116t211 43q85 0 157.5 -25t122.5 -66.5t85 -96t51.5 -114t16.5 -119.5q0 -44 -7 -88.5t-15 -67.5l-7 -23h-721q5 -85 80 -147t188 -62q55 0 112.5 10.5t101 25t79 29.5t53.5 25l19 11l-25 -228q-18 -9 -50.5 -23t-130 -37t-191.5 -23 q-210 0 -343 131.5t-133 332.5zM358 573h510q0 86 -62 154t-165 68q-97 0 -177.5 -63.5t-105.5 -158.5zM375 1223l325 223l283 -223l-86 -129l-221 120l-244 -120z" />
<glyph unicode="&#xeb;" horiz-adv-x="1132" d="M102 444q0 115 46 219t122 177t178 116t211 43q85 0 157.5 -25t122.5 -66.5t85 -96t51.5 -114t16.5 -119.5q0 -44 -7 -88.5t-15 -67.5l-7 -23h-721q5 -85 80 -147t188 -62q55 0 112.5 10.5t101 25t79 29.5t53.5 25l19 11l-25 -228q-18 -9 -50.5 -23t-130 -37t-191.5 -23 q-210 0 -343 131.5t-133 332.5zM346 1149l25 237h239l-24 -237h-240zM358 573h510q0 86 -62 154t-165 68q-97 0 -177.5 -63.5t-105.5 -158.5zM752 1149l24 237h240l-25 -237h-239z" />
<glyph unicode="&#xec;" horiz-adv-x="585" d="M121 0l102 979h250l-102 -979h-250zM127 1253l137 213l359 -229l-86 -158z" />
<glyph unicode="&#xed;" horiz-adv-x="585" d="M121 0l102 979h250l-102 -979h-250zM129 1237l408 229l92 -213l-447 -174z" />
<glyph unicode="&#xee;" horiz-adv-x="585" d="M70 1223l325 223l283 -223l-86 -129l-221 120l-244 -120zM121 0l102 979h250l-102 -979h-250z" />
<glyph unicode="&#xef;" horiz-adv-x="585" d="M41 1149l25 237h239l-24 -237h-240zM121 0l102 979h250l-102 -979h-250zM446 1149l25 237h240l-25 -237h-240z" />
<glyph unicode="&#xf0;" horiz-adv-x="1163" d="M88 434q0 106 43.5 202t114.5 162.5t163 106t187 39.5q46 0 88 -8t69 -20t48 -24t30 -20l9 -8q-18 160 -113 248l-139 -125l-125 141l98 89q-83 38 -215 38l16 232q226 0 394 -94l123 110l122 -139l-100 -94q193 -211 193 -588q0 -146 -31 -266t-83.5 -199.5t-123.5 -134 t-149.5 -78.5t-163.5 -24q-200 0 -327.5 127.5t-127.5 326.5zM324 436q0 -97 62.5 -165t164.5 -68q73 0 131.5 33.5t93.5 89.5t53.5 125t18.5 145l-2 37q-3 4 -9 10.5t-28 23t-47.5 29t-67.5 23t-88 10.5q-120 0 -201 -82.5t-81 -210.5z" />
<glyph unicode="&#xf1;" horiz-adv-x="1208" d="M115 0l102 979h227v-111q5 5 14.5 14t40.5 31.5t65 40t86.5 31.5t105.5 14q164 0 259 -94t95 -256q0 -40 -6 -94l-57 -555h-244l55 547q6 48 6 71q0 75 -48 117.5t-128 42.5q-44 0 -87 -12t-73 -29t-53.5 -34t-34.5 -29l-12 -12l-70 -662h-243zM430 1188q8 77 66.5 142 t138.5 65q34 0 63 -9.5t44.5 -21.5t35.5 -21.5t39 -9.5q21 0 42.5 16.5t32.5 32.5l11 17l121 -58q-8 -76 -66.5 -141t-138.5 -65q-45 0 -78.5 15.5t-58.5 30.5t-47 15q-21 0 -42 -16.5t-31 -33.5l-11 -16z" />
<glyph unicode="&#xf2;" horiz-adv-x="1189" d="M92 444q0 158 80 286.5t210.5 198.5t281.5 70q207 0 344 -130t137 -334q0 -158 -79.5 -286.5t-209.5 -198.5t-281 -70q-206 0 -344.5 130.5t-138.5 333.5zM326 459q0 -118 70.5 -189t191.5 -71q136 0 229.5 93.5t93.5 227.5q0 118 -70.5 189t-191.5 71 q-136 0 -229.5 -93.5t-93.5 -227.5zM455 1253l137 213l358 -229l-86 -158z" />
<glyph unicode="&#xf3;" horiz-adv-x="1189" d="M92 444q0 158 80 286.5t210.5 198.5t281.5 70q207 0 344 -130t137 -334q0 -158 -79.5 -286.5t-209.5 -198.5t-281 -70q-206 0 -344.5 130.5t-138.5 333.5zM326 459q0 -118 70.5 -189t191.5 -71q136 0 229.5 93.5t93.5 227.5q0 118 -70.5 189t-191.5 71 q-136 0 -229.5 -93.5t-93.5 -227.5zM449 1237l407 229l92 -213l-446 -174z" />
<glyph unicode="&#xf4;" horiz-adv-x="1189" d="M92 444q0 158 80 286.5t210.5 198.5t281.5 70q207 0 344 -130t137 -334q0 -158 -79.5 -286.5t-209.5 -198.5t-281 -70q-206 0 -344.5 130.5t-138.5 333.5zM326 459q0 -118 70.5 -189t191.5 -71q136 0 229.5 93.5t93.5 227.5q0 118 -70.5 189t-191.5 71 q-136 0 -229.5 -93.5t-93.5 -227.5zM395 1223l326 223l283 -223l-86 -129l-222 120l-243 -120z" />
<glyph unicode="&#xf5;" horiz-adv-x="1189" d="M92 444q0 158 80 286.5t210.5 198.5t281.5 70q207 0 344 -130t137 -334q0 -158 -79.5 -286.5t-209.5 -198.5t-281 -70q-206 0 -344.5 130.5t-138.5 333.5zM326 459q0 -118 70.5 -189t191.5 -71q136 0 229.5 93.5t93.5 227.5q0 118 -70.5 189t-191.5 71 q-136 0 -229.5 -93.5t-93.5 -227.5zM401 1188q8 77 66.5 142t138.5 65q34 0 63 -9.5t44.5 -21.5t35.5 -21.5t39 -9.5q21 0 42.5 16.5t32.5 32.5l11 17l121 -58q-8 -77 -66 -141.5t-138 -64.5q-45 0 -79 15.5t-59 30.5t-47 15q-21 0 -42 -16.5t-32 -33.5l-10 -16z" />
<glyph unicode="&#xf6;" horiz-adv-x="1189" d="M92 444q0 158 80 286.5t210.5 198.5t281.5 70q207 0 344 -130t137 -334q0 -158 -79.5 -286.5t-209.5 -198.5t-281 -70q-206 0 -344.5 130.5t-138.5 333.5zM326 459q0 -118 70.5 -189t191.5 -71q136 0 229.5 93.5t93.5 227.5q0 118 -70.5 189t-191.5 71 q-136 0 -229.5 -93.5t-93.5 -227.5zM365 1149l24 237h240l-25 -237h-239zM770 1149l25 237h239l-24 -237h-240z" />
<glyph unicode="&#xf7;" d="M145 555l23 221h881l-23 -221h-881zM418 193l28 260h261l-29 -260h-260zM492 881l26 262h260l-26 -262h-260z" />
<glyph unicode="&#xf8;" horiz-adv-x="1189" d="M88 29l113 123q-99 123 -99 292q0 155 77 283t206 200t279 72q146 0 256 -69l112 123l117 -103l-113 -123q99 -127 99 -292q0 -155 -76.5 -283t-205 -200t-278.5 -72q-143 0 -258 67l-110 -121zM336 459q0 -68 29 -131l395 430q-52 22 -111 22q-131 0 -222 -95.5 t-91 -225.5zM477 219q44 -20 111 -20q131 0 222 95.5t91 225.5q0 69 -29 129z" />
<glyph unicode="&#xf9;" horiz-adv-x="1208" d="M133 330q0 40 6 94l58 555h243l-55 -547q-6 -48 -6 -72q0 -75 48 -117t128 -42q44 0 87 12t73 29t53.5 34t35.5 29l11 12l70 662h243l-102 -979h-227v111q-5 -5 -14.5 -14t-40.5 -31.5t-65 -40t-86.5 -31.5t-105.5 -14q-164 0 -259 94t-95 256zM436 1253l137 213 l359 -229l-86 -158z" />
<glyph unicode="&#xfa;" horiz-adv-x="1208" d="M133 330q0 40 6 94l58 555h243l-55 -547q-6 -48 -6 -72q0 -75 48 -117t128 -42q44 0 87 12t73 29t53.5 34t35.5 29l11 12l70 662h243l-102 -979h-227v111q-5 -5 -14.5 -14t-40.5 -31.5t-65 -40t-86.5 -31.5t-105.5 -14q-164 0 -259 94t-95 256zM442 1237l408 229l92 -213 l-446 -174z" />
<glyph unicode="&#xfb;" horiz-adv-x="1208" d="M133 330q0 40 6 94l58 555h243l-55 -547q-6 -48 -6 -72q0 -75 48 -117t128 -42q44 0 87 12t73 29t53.5 34t35.5 29l11 12l70 662h243l-102 -979h-227v111q-5 -5 -14.5 -14t-40.5 -31.5t-65 -40t-86.5 -31.5t-105.5 -14q-164 0 -259 94t-95 256zM383 1223l326 223 l282 -223l-86 -129l-221 120l-244 -120z" />
<glyph unicode="&#xfc;" horiz-adv-x="1208" d="M133 330q0 40 6 94l58 555h243l-55 -547q-6 -48 -6 -72q0 -75 48 -117t128 -42q44 0 87 12t73 29t53.5 34t35.5 29l11 12l70 662h243l-102 -979h-227v111q-5 -5 -14.5 -14t-40.5 -31.5t-65 -40t-86.5 -31.5t-105.5 -14q-164 0 -259 94t-95 256zM352 1149l25 237h239 l-24 -237h-240zM758 1149l24 237h240l-25 -237h-239z" />
<glyph unicode="&#xfd;" horiz-adv-x="1105" d="M106 979h252l222 -668l338 668h253l-759 -1389h-244l268 486zM418 1237l407 229l93 -213l-447 -174z" />
<glyph unicode="&#xfe;" horiz-adv-x="1226" d="M94 -410l201 1883h240l-66 -596q4 5 12.5 13t36.5 29t59.5 37.5t81.5 29.5t103 13q180 0 302 -130.5t122 -336.5q0 -120 -40.5 -224t-109 -175.5t-162 -112t-198.5 -40.5q-59 0 -109.5 12t-81.5 29.5t-53.5 35t-31.5 29.5l-9 12l-53 -508h-244zM414 322q2 -5 7.5 -13 t25 -29t44 -37t66.5 -29t90 -13q129 0 214 94.5t85 228.5q0 110 -64 183t-173 73q-48 0 -92.5 -13t-73 -31t-50.5 -36.5t-32 -31.5l-10 -13z" />
<glyph unicode="&#xff;" horiz-adv-x="1105" d="M106 979h252l222 -668l338 668h253l-759 -1389h-244l268 486zM340 1149l25 237h239l-24 -237h-240zM745 1149l25 237h240l-25 -237h-240z" />
<glyph unicode="&#x152;" horiz-adv-x="2095" d="M115 633q0 164 62.5 311t167 250t245 163t291.5 60q56 0 108 -7t85.5 -16.5t59 -19.5t36.5 -17l12 -7l4 47h932l-25 -236h-686l-35 -338h578l-25 -235h-577l-37 -355h700l-24 -233h-947l4 55q-5 -3 -13.5 -8t-39 -17.5t-64 -22t-87.5 -17.5t-111 -8q-131 0 -245 49 t-195 134.5t-127.5 207t-46.5 260.5zM360 641q0 -188 115.5 -310t288.5 -122q55 0 106.5 9.5t86.5 23t62 27t39 23.5l13 9l86 809q-4 3 -11.5 8.5t-33.5 19t-56 23.5t-79.5 18.5t-102.5 8.5q-102 0 -196.5 -42t-164.5 -114t-111.5 -174t-41.5 -217z" />
<glyph unicode="&#x153;" horiz-adv-x="1921" d="M102 444q0 155 77 283t206 200t279 72q120 0 219 -48t161 -134q72 85 179 133.5t225 48.5q106 0 191 -37.5t136 -99.5t78 -135t27 -149q0 -44 -7 -88.5t-15 -67.5l-7 -23h-721q8 -84 82.5 -146.5t186.5 -62.5q55 0 112.5 10.5t100.5 25t78.5 29.5t53.5 25l19 11l-24 -228 q-18 -9 -49.5 -23t-128.5 -37t-193 -23q-127 0 -226 47t-155 131q-77 -84 -185 -131t-227 -47q-204 0 -338.5 131.5t-134.5 332.5zM336 459q0 -115 68 -187.5t184 -72.5q131 0 222 95.5t91 225.5q0 115 -68 187.5t-184 72.5q-131 0 -222 -95.5t-91 -225.5zM1151 573h510 q0 86 -62 154t-165 68q-97 0 -177.5 -63.5t-105.5 -158.5z" />
<glyph unicode="&#x178;" horiz-adv-x="1253" d="M129 1397h272l271 -617l395 617h274l-567 -842l-57 -555h-246l57 559zM434 1567l25 237h239l-24 -237h-240zM840 1567l24 237h240l-25 -237h-239z" />
<glyph unicode="&#x2c6;" horiz-adv-x="608" d="M61 1223l326 223l283 -223l-86 -129l-222 120l-243 -120z" />
<glyph unicode="&#x2dc;" horiz-adv-x="577" d="M57 1188q8 77 66.5 142t138.5 65q34 0 63 -9.5t44.5 -21.5t35.5 -21.5t39 -9.5q21 0 42.5 16.5t32.5 32.5l11 17l121 -58q-8 -76 -66.5 -141t-138.5 -65q-45 0 -78.5 15.5t-58.5 30.5t-47 15q-21 0 -42 -16.5t-32 -33.5l-10 -16z" />
<glyph unicode="&#x2000;" horiz-adv-x="964" />
<glyph unicode="&#x2001;" horiz-adv-x="1929" />
<glyph unicode="&#x2002;" horiz-adv-x="964" />
<glyph unicode="&#x2003;" horiz-adv-x="1929" />
<glyph unicode="&#x2004;" horiz-adv-x="643" />
<glyph unicode="&#x2005;" horiz-adv-x="482" />
<glyph unicode="&#x2006;" horiz-adv-x="321" />
<glyph unicode="&#x2007;" horiz-adv-x="321" />
<glyph unicode="&#x2008;" horiz-adv-x="241" />
<glyph unicode="&#x2009;" horiz-adv-x="385" />
<glyph unicode="&#x200a;" horiz-adv-x="107" />
<glyph unicode="&#x2010;" horiz-adv-x="778" d="M139 436l23 223h532l-22 -223h-533z" />
<glyph unicode="&#x2011;" horiz-adv-x="778" d="M139 436l23 223h532l-22 -223h-533z" />
<glyph unicode="&#x2012;" horiz-adv-x="778" d="M139 436l23 223h532l-22 -223h-533z" />
<glyph unicode="&#x2013;" horiz-adv-x="970" d="M16 438l23 221h971l-23 -221h-971z" />
<glyph unicode="&#x2014;" horiz-adv-x="1941" d="M16 438l23 221h1941l-22 -221h-1942z" />
<glyph unicode="&#x2018;" horiz-adv-x="479" d="M117 969l28 276l230 305l100 -65l-139 -223l-2 -27h80l-29 -266h-268z" />
<glyph unicode="&#x2019;" horiz-adv-x="479" d="M129 958l141 224l2 26h-79l28 267h268l-28 -277l-230 -305z" />
<glyph unicode="&#x201a;" horiz-adv-x="520" d="M55 -250l142 223l2 27h-80l28 266h269l-29 -276l-229 -305z" />
<glyph unicode="&#x201c;" horiz-adv-x="890" d="M117 969l28 276l230 305l100 -65l-139 -223l-2 -27h80l-29 -266h-268zM528 969l29 276l229 305l101 -65l-139 -223l-3 -27h80l-28 -266h-269z" />
<glyph unicode="&#x201d;" horiz-adv-x="890" d="M129 958l141 224l2 26h-79l28 267h268l-28 -277l-230 -305zM541 958l141 224l2 26h-80l29 267h268l-29 -277l-229 -305z" />
<glyph unicode="&#x201e;" horiz-adv-x="931" d="M55 -250l142 223l2 27h-80l28 266h269l-29 -276l-229 -305zM467 -250l141 223l2 27h-80l29 266h268l-28 -276l-230 -305z" />
<glyph unicode="&#x2022;" horiz-adv-x="954" d="M162 647q0 147 102.5 249.5t251.5 102.5q144 0 249 -104.5t105 -247.5q0 -148 -103 -251t-251 -103q-149 0 -251.5 103t-102.5 251z" />
<glyph unicode="&#x2026;" horiz-adv-x="1665" d="M135 0l29 266h268l-29 -266h-268zM690 0l29 266h268l-29 -266h-268zM1245 0l29 266h268l-29 -266h-268z" />
<glyph unicode="&#x202f;" horiz-adv-x="385" />
<glyph unicode="&#x2039;" horiz-adv-x="702" d="M106 481l334 439h250l-328 -439l236 -438h-250z" />
<glyph unicode="&#x203a;" horiz-adv-x="702" d="M59 43l330 438l-237 439h249l244 -439l-336 -438h-250z" />
<glyph unicode="&#x205f;" horiz-adv-x="482" />
<glyph unicode="&#x20ac;" d="M18 459l82 186h72q0 60 10 129h-131l82 187h98q87 219 264.5 337.5t411.5 118.5q64 0 123.5 -9.5t87.5 -18.5l27 -9l-29 -241q-10 5 -28 13.5t-79 22t-126 13.5q-126 0 -225 -58t-164 -169h424l-21 -187h-467q-12 -61 -12 -129h375l-21 -186h-330q33 -118 120.5 -184 t225.5 -66q65 0 135 18.5t107 36.5l37 19l-25 -248q-14 -6 -39 -15t-104 -24.5t-158 -15.5q-227 0 -373.5 132.5t-179.5 346.5h-170z" />
<glyph unicode="&#x2122;" horiz-adv-x="1718" d="M195 1198l20 197h573l-20 -197h-188l-60 -563h-201l60 563h-184zM821 635l80 760h180l158 -250l207 250h180l-80 -760h-198l45 424l-185 -213l-145 215l-45 -426h-197z" />
<glyph unicode="&#x25fc;" horiz-adv-x="983" d="M0 0v983h983v-983h-983z" />
<glyph unicode="&#xfb03;" horiz-adv-x="1871" d="M100 758l25 221h133l14 139q35 359 463 359l-20 -197q-183 0 -197 -135l-16 -166h389l14 139q35 359 463 359l-20 -197q-183 0 -197 -135l-16 -166h632l-102 -979h-250l78 758h-383l-78 -758h-244l78 758h-389l-78 -758h-243l77 758h-133zM1530 1139l26 256h259l-27 -256 h-258z" />
<glyph unicode="&#xfb04;" horiz-adv-x="1845" d="M100 758l25 221h133l14 139q35 359 463 359l-20 -197q-183 0 -197 -135l-16 -166h389l14 139q35 357 463 357h438l-153 -1475h-244l133 1280h-194q-183 0 -197 -135l-16 -166h180l-25 -221h-180l-78 -758h-244l78 758h-389l-78 -758h-243l77 758h-133z" />
</font>
</defs>
</svg>
